<?xml version="1.0" encoding="UTF-8" standalone="no"?>
<!-- Created with Inkscape (http://www.inkscape.org/) -->

<svg
   width="145.01842mm"
   height="172.72098mm"
   viewBox="0 0 145.01842 172.72098"
   version="1.1"
   id="svg1"
   xml:space="preserve"
   inkscape:version="1.4 (e7c3feb1, 2024-10-09)"
   sodipodi:docname="logo_small.svg"
   xmlns:inkscape="http://www.inkscape.org/namespaces/inkscape"
   xmlns:sodipodi="http://sodipodi.sourceforge.net/DTD/sodipodi-0.dtd"
   xmlns="http://www.w3.org/2000/svg"
   xmlns:svg="http://www.w3.org/2000/svg"><sodipodi:namedview
     id="namedview1"
     pagecolor="#f7a485"
     bordercolor="#000000"
     borderopacity="0.25"
     inkscape:showpageshadow="2"
     inkscape:pageopacity="0.0"
     inkscape:pagecheckerboard="0"
     inkscape:deskcolor="#d1d1d1"
     inkscape:document-units="mm"
     inkscape:zoom="0.68134686"
     inkscape:cx="35.95819"
     inkscape:cy="352.2435"
     inkscape:window-width="2560"
     inkscape:window-height="1387"
     inkscape:window-x="1728"
     inkscape:window-y="567"
     inkscape:window-maximized="1"
     inkscape:current-layer="svg1" /><defs
     id="defs1" /><path
     style="fill:#ffffff;fill-opacity:1;stroke:#ffffff;stroke-width:5.39999;stroke-linecap:round;stroke-linejoin:round;stroke-dasharray:none;stroke-opacity:1;paint-order:stroke markers fill"
     d="m 45.554686,130.39196 -5.26931,24.43045 6.227369,2.87417 21.077243,-15.56842 6.22737,-8.62251 z"
     id="path3" /><circle
     style="fill:#ffffff;fill-opacity:1;stroke:#ffffff;stroke-width:5.91003;stroke-linecap:round;stroke-linejoin:round;stroke-dasharray:none;stroke-opacity:1;paint-order:stroke markers fill"
     id="path2"
     cx="72.859314"
     cy="72.190018"
     r="69.204086" /><g
     inkscape:label="Layer 1"
     inkscape:groupmode="layer"
     id="layer1"
     transform="translate(-34.443042,-60.500824)"><path
       style="fill:#061e2f;fill-opacity:1;stroke:#ffffff;stroke-width:5.4;stroke-linecap:round;stroke-linejoin:round;stroke-dasharray:none;stroke-opacity:1;paint-order:stroke markers fill"
       d="m 69.88702,230.4506 c -2.492464,-0.52732 -3.360692,-3.64602 -2.168153,-7.78809 1.788054,-6.21047 3.751493,-18.40863 4.372443,-27.16445 0.181484,-2.55905 0.181484,-2.55905 -0.972912,-3.14679 C 63.908266,188.68032 54.586209,179.5173 48.196002,169.81991 21.72477,129.6488 45.163865,74.157884 92.585876,64.729041 c 6.6347,-1.319168 16.791834,-1.890991 21.852224,-1.230231 6.15128,0.803204 11.18213,1.955361 15.8509,3.630148 l 1.32292,0.474558 -1.51121,0.16943 c -3.77783,0.423553 -9.20441,5.130718 -9.20441,7.984152 0,0.349155 -0.13646,0.453219 -0.46303,0.353113 -9.82376,-3.01137 -28.827106,-1.012722 -39.021294,4.104006 -37.829615,18.987665 -44.596855,67.701263 -13.300057,95.739723 4.349222,3.89642 12.656216,9.53546 14.046894,9.53546 2.51474,0 2.217241,10.24824 -0.651635,22.44753 -0.552987,2.35146 -0.934237,4.27538 -0.847221,4.27538 0.388908,0 5.514779,-4.0599 7.871665,-6.23469 1.429475,-1.31903 3.611077,-3.27964 4.848004,-4.35692 1.236927,-1.07727 4.245486,-3.87899 6.685694,-6.22603 4.43673,-4.26736 4.43673,-4.26736 5.95312,-4.01819 8.6277,1.41764 23.95265,-3.23995 33.24336,-10.1034 23.26981,-17.19041 31.96447,-44.95115 21.93601,-70.03836 l -1.17904,-2.94948 1.32209,-2.73907 c 3.47131,-7.191771 2.37269,-11.377738 -3.743,-14.261667 -1.04987,-0.495079 -1.94955,-0.923844 -1.99929,-0.952811 -0.0497,-0.02897 0.32854,-0.767541 0.84063,-1.641276 0.51208,-0.873735 1.03251,-2.101611 1.1565,-2.728613 0.35777,-1.809137 8.19489,8.364878 11.46837,14.888057 15.76768,31.42076 6.54612,67.65238 -22.63548,88.93517 -10.20178,7.44038 -25.2544,12.86435 -35.79212,12.89712 -1.61329,0.005 -1.69288,0.0384 -2.77813,1.16573 -2.52733,2.62532 -12.085694,11.01988 -15.601197,13.70165 -11.030939,8.41483 -19.765458,13.45212 -22.370123,12.90107 z m 28.781586,-48.46693 c -2.168555,-1.4759 -2.380958,-2.73131 -1.381269,-8.16395 1.821199,-9.897 1.044639,-21.66567 -1.797187,-27.23611 -0.596333,-1.16891 0.55429,-2.71037 7.40957,-9.92639 1.71683,-1.80717 3.87879,-4.41754 4.80436,-5.8008 1.94344,-2.90449 1.71428,-2.82744 4.38647,-1.47498 2.56513,1.29828 13.42786,5.86542 15.50685,6.51973 1.43299,0.45099 1.53089,0.53268 1.38797,1.15808 -0.29041,1.27076 -0.92762,12.846 -0.94008,17.07703 -0.0157,5.33818 -0.01,5.3164 -1.47797,5.51762 -5.98698,0.82061 -17.87136,11.5647 -22.31965,20.17813 -1.48027,2.8663 -3.42628,3.61681 -5.579064,2.15164 z m 6.950174,-11.37708 c 0.38026,-0.90951 1.48235,-3.49912 2.44908,-5.75469 0.96673,-2.25557 2.05135,-4.79656 2.41026,-5.64665 0.35892,-0.85008 0.94483,-2.00858 1.30204,-2.57443 1.07617,-1.70476 0.90604,-2.39077 -0.8005,-3.22773 -1.86804,-0.91618 -2.00692,-0.78104 -3.84741,3.74366 -4.3592,10.7168 -5.45819,12.86891 -6.66212,13.0462 -0.45311,0.0667 -0.23795,0.2134 0.84375,0.5752 0.79858,0.2671 1.87014,0.70683 2.38125,0.97717 1.25038,0.66136 1.14492,0.72379 1.92365,-1.13873 z m 8.98544,-17.93717 c 5.25148,-1.45847 3.03701,-9.62177 -2.39533,-8.82999 -3.76151,0.54825 -5.24764,3.50826 -3.33279,6.63812 1.26466,2.06712 3.33071,2.8577 5.72812,2.19187 z m -46.111287,2.8529 c -2.732431,-1.84139 -3.502834,-4.87848 -1.685264,-6.64369 1.838385,-1.78541 1.603899,-1.75381 13.014391,-1.75381 h 10.307252 l 0.221471,2.97656 c 0.121809,1.63711 0.228051,3.57187 0.236094,4.29948 l 0.01462,1.32292 -4.7625,0.16541 c -11.410465,0.39632 -16.3692,0.29144 -17.346068,-0.36687 z m 65.691577,0.2676 c -0.29105,-0.35607 -0.47734,-3.64334 -0.38235,-6.74687 l 0.0587,-1.91823 5.62239,0.004 c 5.32545,0.004 5.67829,0.0356 6.68073,0.5964 2.76564,1.54714 2.95269,6.17572 0.30044,7.43429 -1.87315,0.88887 -11.65802,1.39092 -12.27993,0.63006 z M 69.302544,139.30959 c -3.993712,-1.7889 -4.588709,-5.94623 -1.14106,-7.97276 1.315511,-0.77325 29.893258,-1.10636 31.279262,-0.3646 0.41635,0.22283 0.18175,0.56113 -1.881675,2.71347 -1.543736,1.61026 -2.638642,3.02964 -3.172416,4.11256 l -0.815088,1.65364 H 83.061484 c -5.780546,0 -11.032717,0.0613 -11.671491,0.13625 -0.751243,0.0881 -1.488449,-0.0102 -2.087449,-0.27856 z m 60.721876,-8.5696 c -1.60073,-0.5545 -4.2201,-1.56432 -5.82083,-2.24404 -1.60073,-0.67971 -3.56526,-1.42527 -4.36563,-1.65679 -1.58926,-0.45972 -5.30077,-2.24714 -7.3038,-3.51742 -0.69656,-0.44175 -1.47425,-0.80317 -1.72822,-0.80317 -0.89271,0 -0.21703,-2.81739 1.71326,-7.14375 0.7578,-1.69846 3.93909,-9.89337 4.6734,-12.03854 0.3985,-1.16417 1.21934,-3.26943 1.82408,-4.678358 1.47156,-3.428408 4.15228,-10.496797 4.38801,-11.57007 0.236,-1.074526 0.57335,-1.01601 3.96282,0.687389 4.34101,2.181608 18.78525,7.755827 20.09734,7.755827 0.38075,0 0.71268,-0.190906 0.80505,-0.46302 0.51384,-1.513593 0.68932,-1.529536 3.63145,-0.329933 6.11911,2.494962 6.70553,4.23786 3.67763,10.930195 -1.0064,2.22437 -2.24398,5.229 -2.75017,6.67697 -5.43573,15.54889 -6.88644,18.11079 -10.25544,18.11079 -3.36734,0 -3.52499,-3.05479 -0.48561,-9.40962 0.70044,-1.46451 1.67736,-3.90529 2.17093,-5.42396 0.94086,-2.89495 3.51201,-9.69268 4.5845,-12.1207 0.34546,-0.78209 0.6281,-1.50861 0.6281,-1.61448 0,-0.20886 -3.69197,-1.975226 -3.80471,-1.8203 -0.0377,0.0519 -0.21962,0.63005 -0.40419,1.28489 -0.18456,0.65484 -1.27174,3.57188 -2.41593,6.48229 -1.1442,2.91042 -3.41484,8.86354 -5.04588,13.22917 -1.63104,4.36563 -3.20154,8.56258 -3.49,9.32656 -0.62782,1.66276 -0.5217,1.65409 -4.28616,0.35007 z m -61.40098,-8.06632 c -4.020282,-1.75079 -3.372105,-7.4211 0.949451,-8.30588 2.064578,-0.4227 36.743489,-0.4317 36.905469,-0.01 0.075,0.19533 -0.45383,1.50706 -1.17508,2.91494 -0.72124,1.40789 -1.46076,3.28313 -1.64336,4.16719 l -0.332,1.6074 -16.946543,-0.0104 c -13.536616,-0.008 -17.109808,-0.0815 -17.757937,-0.36371 z m -0.224938,-16.6147 c -3.578968,-1.83612 -3.369351,-6.720371 0.351926,-8.200174 0.748522,-0.297657 44.444492,-0.471206 44.626152,-0.177243 0.0565,0.09136 -0.59249,1.520111 -1.44211,3.174997 -0.84962,1.65489 -1.74042,3.6042 -1.97956,4.33181 l -0.4348,1.32292 -20.118811,6e-4 c -18.480601,5.5e-4 -20.19079,-0.0363 -21.002797,-0.45291 z M 148.57269,89.829868 c -0.2755,-0.201447 -1.46594,-0.684014 -2.64542,-1.072371 -1.17949,-0.388357 -3.40143,-1.276356 -4.93765,-1.973332 -1.53622,-0.696975 -3.61982,-1.523913 -4.63021,-1.837638 -3.23133,-1.003326 -5.91023,-2.152371 -7.0645,-3.030134 -0.61742,-0.469512 -1.38702,-0.993909 -1.71023,-1.165327 -1.58073,-0.838356 1.31425,-6.010689 4.02724,-7.195301 2.9348,-1.281461 4.54172,-0.945706 11.42044,2.386219 7.50183,3.633751 8.49523,5.198433 6.97411,10.984818 -0.97025,3.69089 -0.80738,3.361108 -1.43378,2.903066 z"
       id="path1" /></g></svg>
