<?xml version="1.0" encoding="UTF-8" standalone="no"?>
<!-- Created with Inkscape (http://www.inkscape.org/) -->

<svg
   width="210mm"
   height="297mm"
   viewBox="0 0 210 297"
   version="1.1"
   id="svg1"
   xml:space="preserve"
   inkscape:version="1.4 (e7c3feb1, 2024-10-09)"
   sodipodi:docname="logo.svg"
   xmlns:inkscape="http://www.inkscape.org/namespaces/inkscape"
   xmlns:sodipodi="http://sodipodi.sourceforge.net/DTD/sodipodi-0.dtd"
   xmlns="http://www.w3.org/2000/svg"
   xmlns:svg="http://www.w3.org/2000/svg"><sodipodi:namedview
     id="namedview1"
     pagecolor="#f9c1c7"
     bordercolor="#000000"
     borderopacity="0"
     inkscape:showpageshadow="2"
     inkscape:pageopacity="0.0"
     inkscape:pagecheckerboard="0"
     inkscape:deskcolor="#d1d1d1"
     inkscape:document-units="mm"
     inkscape:zoom="0.83483625"
     inkscape:cx="730.08329"
     inkscape:cy="491.11427"
     inkscape:window-width="2560"
     inkscape:window-height="1387"
     inkscape:window-x="1728"
     inkscape:window-y="567"
     inkscape:window-maximized="1"
     inkscape:current-layer="g35" /><defs
     id="defs1" /><g
     inkscape:groupmode="layer"
     id="layer2"
     inkscape:label="Layer 2" /><path
     style="fill:#ffffff;fill-opacity:1;stroke:none;stroke-width:1.59109;stroke-dasharray:none;stroke-opacity:1"
     d="m 77.738481,172.25826 4.357494,5.60251 -0.415001,16.60006 -1.452506,14.73254 3.735015,5.81002 -1.867508,23.65507 8.092536,9.54504 3.112507,14.11004 3.942518,13.69504 -2.697513,5.39503 2.282507,3.73499 6.22503,0.83 1.66001,-3.94249 v -4.77252 l 0.41499,-5.81002 3.32,-17.43007 9.54504,-14.94003 -1.24501,-24.27757 3.73502,-4.98002 -1.45251,-5.60253 0.20752,-28.01259 4.98003,-5.80999 -0.83002,-3.94252 -41.292632,-0.415 -5.602499,2.28251 z"
     id="path32" /><circle
     style="fill:#ffffff;fill-opacity:1;stroke:#ffffff;stroke-width:1.81704;stroke-dasharray:none;stroke-opacity:1"
     id="path1"
     cx="100.61108"
     cy="100.97311"
     r="77.533813" /><circle
     style="fill:#ffffff;fill-opacity:1;stroke:#ffffff;stroke-width:0.750528;stroke-dasharray:none;stroke-opacity:1"
     id="path1-7"
     cx="171.04881"
     cy="93.061684"
     r="32.025261" /><circle
     style="fill:#ffffff;fill-opacity:1;stroke:#ffffff;stroke-width:0.120869;stroke-dasharray:none;stroke-opacity:1"
     id="path1-7-4"
     cx="165.06328"
     cy="192.00903"
     r="5.1575046" /><circle
     style="fill:#ffffff;fill-opacity:1;stroke:#ffffff;stroke-width:0.101642;stroke-dasharray:none;stroke-opacity:1"
     id="path1-7-4-6"
     cx="141.98849"
     cy="225.20482"
     r="4.3371153" /><circle
     style="fill:#ffffff;fill-opacity:1;stroke:#ffffff;stroke-width:0.101642;stroke-dasharray:none;stroke-opacity:1"
     id="path1-7-4-6-6"
     cx="59.336697"
     cy="224.30406"
     r="4.3371153" /><circle
     style="fill:#ffffff;fill-opacity:1;stroke:#ffffff;stroke-width:0.101642;stroke-dasharray:none;stroke-opacity:1"
     id="path1-7-4-6-6-8"
     cx="37.167824"
     cy="192.18678"
     r="4.3371153" /><g
     inkscape:label="Layer 1"
     inkscape:groupmode="layer"
     id="layer1"><g
       transform="matrix(0.01625679,0,0,-0.01625679,31.129413,225.59561)"
       fill="#000000"
       stroke="none"
       id="g35"
       style="fill:#061e2f;fill-opacity:1;stroke:#ffffff;stroke-opacity:1;stroke-width:43.05893105;stroke-dasharray:none"><path
         d="m 4146.1276,12952.849 c -40.9137,-50.005 -43.1867,-93.191 -40.9137,-638.708 2.273,-581.884 4.546,-581.884 56.8246,-625.071 70.4626,-59.098 129.5602,-54.552 195.4768,13.639 56.8246,54.551 56.8246,63.643 63.6435,470.507 6.8189,611.433 0,745.539 -45.4597,795.545 -54.5517,61.371 -175.0199,54.551 -229.5715,-15.912 z"
         id="path2"
         style="fill:#061e2f;fill-opacity:1;stroke:#ffffff;stroke-width:97.8723;stroke-dasharray:none;stroke-opacity:1" /><path
         d="m 2575.495,12591.446 c -40.9138,-43.187 -50.0057,-75.009 -40.9138,-131.834 15.9109,-111.376 527.3325,-1445.619 575.0652,-1497.898 20.4569,-22.729 61.3707,-43.186 88.6465,-43.186 68.1895,0 170.4738,84.101 170.4738,136.379 0,25.003 -68.1895,225.026 -150.017,447.779 -81.8275,222.752 -190.9307,520.513 -240.9364,663.711 -136.3792,395.499 -186.3848,479.6 -290.9421,479.6 -34.0948,0 -81.8275,-22.73 -111.3762,-54.551 z"
         id="path3"
         style="fill:#061e2f;fill-opacity:1;stroke:#ffffff;stroke-width:97.8723;stroke-dasharray:none;stroke-opacity:1" /><path
         d="m 5680.3925,12584.626 c -18.1838,-22.73 -68.1895,-122.74 -106.8303,-222.752 -136.379,-343.221 -436.4131,-1204.683 -447.778,-1284.236 -11.3649,-93.193 36.3678,-150.018 145.471,-172.748 93.1924,-18.183 111.3764,9.092 270.4853,445.506 68.1896,193.203 184.1117,495.511 252.3013,670.53 168.2009,420.502 170.4739,436.414 131.8331,511.421 -50.0056,97.739 -177.2928,125.014 -245.4824,52.279 z"
         id="path4"
         style="fill:#061e2f;fill-opacity:1;stroke:#ffffff;stroke-width:97.8723;stroke-dasharray:none;stroke-opacity:1" /><path
         d="m 1129.8764,12202.764 c -100.0114,-97.737 -93.1923,-113.649 263.6663,-572.792 115.9222,-150.016 361.4046,-477.327 543.2434,-725.082 447.7781,-609.16 504.6027,-677.349 568.2463,-686.441 68.1896,-11.366 147.744,31.821 177.2928,97.738 29.5488,65.917 -15.9109,163.654 -147.744,322.764 -143.1981,172.747 -1041.0271,1375.156 -1075.122,1438.799 -90.9193,177.293 -227.2985,229.572 -329.5828,125.014 z"
         id="path5"
         style="fill:#061e2f;fill-opacity:1;stroke:#ffffff;stroke-width:97.8723;stroke-dasharray:none;stroke-opacity:1" /><path
         d="m 7196.4736,12205.038 c -25.0028,-18.184 -122.7412,-138.652 -213.6606,-268.212 -236.3904,-331.856 -393.2264,-543.244 -588.7031,-790.999 -281.8501,-354.586 -547.7894,-727.355 -561.4274,-786.454 -18.1838,-75.007 65.9166,-168.2 150.017,-168.2 68.1896,0 127.2873,56.824 277.3042,272.758 56.8247,81.827 184.1119,252.301 281.8502,377.315 100.0114,127.288 261.3933,345.494 361.4046,486.419 100.0114,143.199 243.2095,329.583 318.218,418.23 243.2093,284.123 261.3932,334.129 159.1089,434.14 -61.3706,63.644 -115.9223,70.462 -184.1118,25.003 z"
         id="path6"
         style="fill:#061e2f;fill-opacity:1;stroke:#ffffff;stroke-width:97.8723;stroke-dasharray:none;stroke-opacity:1" /><path
         d="m -90.716523,11370.852 c -59.097637,-34.094 -50.005707,-136.379 22.729782,-231.845 113.649256,-152.289 638.708871,-593.249 1127.400541,-947.834 161.382,-115.923 379.5885,-281.8508 488.6919,-370.4977 227.2985,-184.1111 322.7639,-231.8438 388.6804,-197.7492 61.3706,34.0946 97.7384,106.8299 81.8275,170.4742 -20.4569,77.2813 -652.3467,600.0677 -1081.94097,893.2837 -93.19232,63.643 -309.12588,236.39 -477.32674,381.861 -361.404665,311.399 -452.3241333,361.404 -550.062413,302.307 z"
         id="path7"
         style="fill:#061e2f;fill-opacity:1;stroke:#ffffff;stroke-width:97.8723;stroke-dasharray:none;stroke-opacity:1" /><path
         d="m 8273.8686,11170.829 c -213.6607,-175.019 -477.3269,-443.232 -415.9563,-427.321 25.0028,6.819 134.106,18.183 243.2094,27.275 177.2928,13.639 213.6605,25.004 329.5828,100.012 247.7554,161.382 340.9477,320.491 229.5715,397.773 -104.5573,75.008 -206.8416,47.733 -386.4074,-97.739 z"
         id="path8"
         style="fill:#061e2f;fill-opacity:1;stroke:#ffffff;stroke-width:97.8723;stroke-dasharray:none;stroke-opacity:1" /><path
         d="m 4121.1248,11013.993 c -113.6492,-61.371 -154.563,-159.108 -206.8417,-504.602 -81.8274,-534.152 -150.017,-786.4535 -345.4937,-1306.9672 -227.2985,-604.614 -477.3269,-1116.0356 -836.4585,-1716.1037 -284.1231,-470.5079 -327.3099,-572.7923 -327.3099,-727.3552 2.273,-172.7469 38.6407,-311.399 209.1146,-784.18 268.2123,-750.0849 343.2208,-1054.6649 379.5885,-1556.9946 25.0029,-338.6749 11.365,-318.218 206.8418,-318.218 h 170.4738 l -13.6379,200.0227 c -20.4569,293.215 -97.7384,831.9125 -150.017,1038.7542 -27.2758,100.0113 -120.4682,381.8614 -211.3877,625.0709 -97.7383,261.3932 -181.8388,531.8785 -206.8416,659.1656 -47.7327,256.8474 -72.7355,188.6578 275.0312,765.996 131.8331,213.6606 327.3098,577.3382 438.6862,806.9097 186.3847,384.1345 270.4851,584.1572 490.9647,1154.6765 45.4597,118.1956 86.3735,218.207 90.9194,222.753 18.1839,18.183 -15.9109,-488.6923 -45.4597,-668.2581 -54.5516,-334.1288 -411.4102,-1134.2196 -740.9932,-1661.5521 -215.9335,-345.4938 -234.1174,-386.4075 -234.1174,-552.3354 0,-150.017 45.4597,-297.7611 265.9393,-893.2832 93.1923,-243.2093 163.6549,-500.0566 197.7497,-709.1713 25.0028,-147.7441 93.1923,-909.194 84.1004,-952.3808 -2.273,-18.1838 245.4824,-25.0028 931.9239,-25.0028 l 934.1968,-2.273 13.638,65.9166 c 6.8189,36.3677 13.6379,111.3762 13.6379,165.9279 0,163.6549 63.6436,618.252 127.2871,895.5561 36.3678,156.836 122.7412,420.5023 215.9336,654.6197 206.8417,513.6947 279.5772,765.9961 265.9393,925.105 -9.092,106.8302 -45.4597,177.2928 -295.488,593.2491 -325.0369,543.2434 -547.7895,945.5618 -677.3496,1218.32 -240.9365,515.9676 -475.0539,1295.6017 -547.7894,1832.0264 -52.2787,386.408 -75.0085,452.324 -179.5658,527.333 -97.7384,70.462 -200.0227,79.554 -293.2151,27.275 z m 190.9307,-872.825 c 20.4569,-129.562 47.7327,-340.9492 59.0976,-472.7817 20.4569,-281.8507 22.7299,-2234.3448 2.273,-2397.9998 -15.9108,-109.1033 -18.1838,-113.6492 -93.1923,-120.4682 -40.9138,-4.546 -86.3735,2.2729 -97.7384,13.6379 -13.6379,13.6379 -25.0028,538.6974 -29.5488,1302.4205 -6.819,1175.1335 -4.546,1306.9659 36.3677,1584.2703 22.7299,165.928 43.1868,306.854 43.1868,313.672 0,4.546 9.0919,9.092 18.1838,9.092 11.365,0 38.6408,-104.557 61.3706,-231.843 z m 145.4711,-3248.097 c 172.7469,-72.7356 263.6662,-286.3961 209.1146,-488.6918 -31.8218,-118.1952 -172.7469,-256.8474 -288.6692,-281.8502 -297.7609,-68.1895 -547.7893,136.3791 -525.0594,427.3212 11.3649,172.7469 109.1032,288.6691 302.307,356.8587 122.7412,43.1867 177.2928,40.9137 302.307,-13.6379 z M 4343.8773,5267.8866 c 88.6465,-72.7355 90.9194,-152.29 11.365,-225.0255 -84.1005,-79.5545 -150.017,-72.7356 -234.1175,22.7298 -84.1005,95.4654 -81.8275,93.1924 -25.0029,188.6578 56.8247,93.1925 147.7441,97.7384 247.7554,13.6379 z"
         id="path9"
         style="fill:#061e2f;fill-opacity:1;stroke:none;stroke-width:97.8723;stroke-dasharray:none;stroke-opacity:1" /><path
         d="m 8085.2108,10334.371 c -395.4995,-84.101 -743.2661,-277.305 -1047.8462,-584.1574 -213.6605,-213.6609 -343.2207,-400.0457 -468.2349,-663.7121 -159.109,-340.9477 -186.3848,-484.1458 -186.3848,-975.1105 0,-404.5914 4.5461,-445.5051 61.3707,-631.8899 70.4625,-231.8445 147.744,-390.9534 261.3932,-547.7893 l 81.8274,-111.3764 -50.0055,-138.652 c -45.4597,-127.2872 -186.3849,-886.4643 -186.3849,-1006.9324 0,-45.4597 11.3649,-52.2786 81.8275,-52.2786 202.2956,0 961.4727,336.4017 1038.7542,459.1429 22.7299,34.0948 34.0948,34.0948 138.6521,-9.092 352.3126,-138.652 788.7258,-186.3847 1147.8575,-122.7412 809.1826,140.9251 1502.4429,790.9989 1722.9209,1616.0925 56.825,209.1146 61.371,263.6662 61.371,659.1656 0,427.3212 0,434.1401 -72.735,647.8008 -140.925,422.7752 -486.418,879.6451 -859.1875,1136.493 -204.5687,140.925 -525.0596,279.577 -763.7231,327.309 -225.0255,45.461 -740.9931,45.461 -961.4726,-2.272 z m 1620.6384,-929.6518 c 168.2008,-115.922 147.744,-379.5882 -34.0949,-456.8697 -106.8302,-43.1867 -211.3875,-22.7299 -300.034,59.0976 -59.0976,54.5516 -70.4625,81.8274 -70.4625,172.7469 0,90.9194 11.3649,118.1952 77.2815,184.1117 63.6436,63.6436 93.1923,77.2817 177.2929,77.2817 54.5516,0 122.7412,-15.9106 150.017,-36.3682 z m -1529.719,-313.6716 c 90.9193,-90.9195 254.5743,-459.1431 547.7894,-1222.866 159.1089,-418.2293 190.9307,-481.8728 275.0311,-547.7894 65.9166,-52.2787 65.9166,-127.2872 2.2731,-209.1146 -43.1867,-56.8246 -59.0977,-61.3707 -172.7469,-52.2787 -106.8304,9.0919 -136.3791,22.7299 -190.9308,84.1004 -34.0947,38.6408 -63.6435,90.9195 -63.6435,115.9223 0,22.7299 -20.4569,97.7384 -45.4597,165.9279 l -45.4597,122.7412 -277.3042,13.6379 c -356.8586,20.4568 -545.5165,20.4568 -575.0652,-2.273 -43.1868,-29.5488 -79.5545,-143.1981 -79.5545,-250.0283 0,-147.7441 -40.9138,-213.6607 -145.4711,-250.0284 -111.3762,-36.3678 -234.1174,-13.6379 -302.307,54.5516 -70.4625,70.4626 -65.9166,140.9252 15.9109,225.0256 47.7327,50.0056 109.1033,177.2928 202.2957,434.1401 75.0085,197.7497 172.7469,459.1429 218.2065,577.3382 45.4597,118.1953 113.6493,295.4881 150.017,393.2265 129.5603,345.4936 175.0199,402.3183 327.3099,402.3183 79.5545,0 118.1952,-13.6379 159.109,-54.5516 z m 1525.1729,-525.0596 56.8247,-56.8247 -4.5459,-552.3354 -2.2731,-554.6083 70.4626,-70.4626 c 81.8275,-81.8274 86.3734,-104.5573 25.0028,-202.2955 -43.1868,-72.7356 -47.7327,-75.0085 -213.6606,-75.0085 -211.3876,0 -231.8444,9.0919 -286.3961,115.9221 -56.8246,109.1033 -56.8246,150.0171 0,179.5658 43.1867,22.7299 45.4597,47.7327 45.4597,484.1458 v 461.4161 l -72.7356,20.4569 c -70.4625,20.4567 -75.0085,27.2758 -70.4625,122.7412 6.819,150.017 50.0058,184.1117 238.6635,184.1117 136.379,0 163.6548,-6.8189 213.6605,-56.8246 z"
         id="path10"
         style="fill:#061e2f;fill-opacity:1;stroke:#ffffff;stroke-width:97.8723;stroke-dasharray:none;stroke-opacity:1" /><path
         d="m 7948.8317,8490.9795 c -36.3678,-120.4682 -100.0113,-302.307 -140.9251,-402.3183 -40.9138,-100.0114 -75.0085,-188.6579 -75.0085,-197.7498 0,-11.3649 138.6521,-18.1839 306.8529,-18.1839 168.201,0 306.8531,9.0919 306.8531,18.1839 0,34.0948 -288.6692,779.6339 -309.126,800.0908 -11.3649,11.3649 -47.7327,-70.4626 -88.6464,-200.0227 z"
         id="path11"
         style="fill:#061e2f;fill-opacity:1;stroke:#ffffff;stroke-width:97.8723;stroke-dasharray:none;stroke-opacity:1" /><path
         d="m -1065.8272,10107.072 c -65.9166,-175.0197 63.6436,-270.485 643.25481,-475.0539 120.46821,-40.9142 411.410276,-154.5625 647.80071,-250.0285 972.83768,-393.2263 1300.14748,-502.3297 1402.43178,-465.9619 109.1033,43.1867 140.9252,181.8388 52.2787,238.6634 -27.2758,20.4569 -159.1089,75.0085 -288.6691,125.0142 -325.0368,122.7414 -797.81779,306.8526 -1272.87159,497.7833 -609.16006,245.4834 -1018.29738,390.9544 -1093.30588,390.9544 -52.27863,0 -72.73553,-13.638 -90.91943,-61.371 z"
         id="path12"
         style="fill:#061e2f;fill-opacity:1;stroke:#ffffff;stroke-width:97.8723;stroke-dasharray:none;stroke-opacity:1" /><path
         d="m -1547.7,8556.896 c -111.3763,-34.0947 -136.3791,-147.744 -52.2787,-245.4823 l 54.5516,-63.6436 656.89276,-18.1839 c 359.13165,-11.3649 1045.57309,-13.6379 1520.627,-9.0919 897.82914,11.3648 959.19974,18.1839 1016.02434,109.1032 31.8218,50.0057 2.273,150.017 -54.5516,179.5658 -43.1867,25.0029 -3068.5299,70.4626 -3141.2654,47.7327 z"
         id="path13"
         style="fill:#061e2f;fill-opacity:1;stroke:#ffffff;stroke-width:97.8723;stroke-dasharray:none;stroke-opacity:1" /><path
         d="m 1209.4309,7788.6271 c -313.67188,-102.2843 -1818.38808,-465.962 -2295.715,-552.3354 -81.8274,-13.6379 -172.7468,-43.1867 -202.2956,-65.9166 -113.6493,-86.3734 -29.5489,-297.761 118.1952,-297.761 38.6407,0 140.9251,25.0028 229.5715,54.5516 88.64643,31.8219 315.94493,88.6465 502.32971,127.2873 761.45,161.3819 1788.83929,434.1401 1968.40509,525.0594 120.4682,59.0977 145.471,145.4711 65.9166,225.0256 -61.3707,61.3706 -170.4739,56.8247 -386.4075,-15.9109 z"
         id="path14"
         style="fill:#061e2f;fill-opacity:1;stroke:#ffffff;stroke-width:97.8723;stroke-dasharray:none;stroke-opacity:1" /><path
         d="M 1027.5921,6933.9847 C 845.75332,6840.7923 497.98664,6649.8615 254.77714,6508.9365 -161.17911,6268.0001 -829.43673,5920.2333 -943.08598,5886.1386 c -70.46252,-22.7299 -143.19812,-120.4683 -143.19812,-197.7497 0,-90.9195 100.0114,-165.928 200.02275,-147.7441 86.37343,13.638 452.32403,209.1147 1106.94376,588.7032 238.66348,138.6521 597.7951,338.6747 802.36369,445.505 204.5687,106.8304 406.8643,227.2985 450.0511,268.2123 68.1896,61.3705 79.5544,84.1004 72.7355,159.1089 -6.8189,84.1005 -9.092,86.3735 -97.7384,93.1924 -75.0085,4.546 -147.744,-22.7298 -420.5022,-161.3819 z"
         id="path15"
         style="fill:#061e2f;fill-opacity:1;stroke:#ffffff;stroke-width:97.8723;stroke-dasharray:none;stroke-opacity:1" /><path
         d="M 1525.3758,6313.4598 C 1338.9911,6117.983 25.205625,4899.6631 -208.9118,4706.4593 c -118.19522,-97.7384 -136.37911,-177.2928 -63.64355,-268.2123 84.10043,-100.0113 159.10893,-72.7355 404.5913,152.29 711.44436,650.0738 1611.54645,1522.9001 1657.00605,1607.0005 40.9138,75.0085 40.9138,81.8275 4.5461,138.6521 -61.3707,90.9195 -168.2009,81.8275 -268.2123,-22.7298 z"
         id="path16"
         style="fill:#061e2f;fill-opacity:1;stroke:#ffffff;stroke-width:97.8723;stroke-dasharray:none;stroke-opacity:1" /><path
         d="m 9478.5507,5722.4836 c -61.3707,-29.5488 -109.1034,-59.0976 -109.1034,-65.9165 0,-15.9109 227.2985,-127.2872 300.0341,-150.017 72.7355,-20.4569 245.4824,38.6407 245.4824,84.1004 0,15.9109 -45.4598,65.9166 -100.0114,109.1032 -118.1952,97.7384 -186.3847,102.2845 -336.4017,22.7299 z"
         id="path17"
         style="fill:#061e2f;fill-opacity:1;stroke:#ffffff;stroke-width:97.8723;stroke-dasharray:none;stroke-opacity:1" /><path
         d="m 7653.3436,5590.6505 -111.3762,-97.7384 40.9137,-65.9165 c 75.0085,-113.6493 1034.2082,-1052.3921 1091.0329,-1068.303 77.2814,-18.1839 138.652,6.8189 184.1117,72.7355 54.5516,84.1004 27.2758,152.29 -106.8303,263.6662 -218.2066,179.5659 -747.8121,709.1715 -797.8178,800.0908 -27.2758,47.7327 -81.8274,111.3763 -118.1952,140.9251 l -68.1896,52.2787 z"
         id="path18"
         style="fill:#061e2f;fill-opacity:1;stroke:#ffffff;stroke-width:97.8723;stroke-dasharray:none;stroke-opacity:1" /><path
         d="M 1934.5131,5311.0733 C 1902.6913,5274.7056 1839.0477,5186.0592 1789.042,5111.0506 1666.3009,4917.8469 1225.3418,4374.6035 995.77033,4133.6671 888.93999,4022.2908 793.4746,3910.9145 786.65568,3885.9117 c -20.45688,-63.6436 61.37065,-159.109 147.74405,-168.2009 63.6436,-6.819 93.19237,13.6379 243.20937,159.109 261.3932,252.3013 1029.6622,1261.5067 1031.9352,1354.6991 0,27.2758 -20.4569,70.4625 -45.4597,95.4654 -65.9165,65.9165 -161.3819,59.0975 -229.5715,-15.911 z"
         id="path19"
         style="fill:#061e2f;fill-opacity:1;stroke:#ffffff;stroke-width:97.8723;stroke-dasharray:none;stroke-opacity:1" /><path
         d="m 6557.7648,5174.6943 c -79.5545,-6.819 -97.7384,-18.1839 -97.7384,-54.5516 0,-61.3707 88.6465,-227.2986 231.8446,-434.1403 111.3762,-161.3819 645.5276,-822.8206 761.4499,-943.2887 102.2843,-106.8304 302.307,-34.0949 302.307,109.1032 0,68.1896 -11.3648,84.1004 -131.8331,177.2929 -163.6549,127.2871 -670.5306,788.7257 -795.5448,1038.7541 -45.4597,90.9194 -90.9193,127.2872 -147.744,118.1953 -15.9109,-2.273 -70.4626,-6.819 -122.7412,-11.3649 z"
         id="path20"
         style="fill:#061e2f;fill-opacity:1;stroke:#ffffff;stroke-width:97.8723;stroke-dasharray:none;stroke-opacity:1" /><path
         d="m 2925.5347,3829.0871 c -102.2844,-25.0029 -181.8389,-84.1004 -247.7554,-184.1118 -113.6493,-172.7469 -59.0977,-411.4104 138.652,-609.1601 l 120.4682,-120.4681 v -743.2662 c -2.2729,-750.0851 -9.0919,-838.7314 -81.8274,-1031.9352 -36.3678,-93.1924 -38.6408,-120.4682 -13.638,-215.93359 31.8219,-118.19528 93.1925,-197.74968 193.2038,-247.75539 59.0976,-31.82183 61.3707,-38.64075 61.3707,-231.84452 -2.2731,-327.3098 -43.1868,-868.28025 -81.8276,-1068.30294 -20.4569,-102.28431 -31.8217,-209.11464 -22.7298,-238.66342 6.819,-29.54881 95.4654,-136.37907 195.4767,-240.93644 206.8416,-211.3876 254.5743,-295.488 370.4966,-650.0737 93.1924,-279.5771 154.563,-556.8813 206.8416,-938.7429 45.4597,-325.0367 45.4597,-465.9619 0,-554.6083 -140.9251,-272.7583 136.3792,-634.1628 486.4188,-631.8899 336.4018,2.273 572.7922,345.4938 445.5051,650.0738 -45.4597,109.1032 -31.8218,245.4824 72.7355,772.8149 156.836,793.2718 268.2123,1061.4841 554.6084,1341.0612 100.0113,100.0114 190.9308,211.3876 204.5686,250.02835 18.1839,50.00564 13.638,115.92221 -9.0919,240.93641 -40.9138,211.38764 -77.2815,613.7059303 -88.6464,997.84047 l -11.3649,288.66903 61.3705,11.36495 c 45.4597,9.09194 79.5546,43.18678 122.7412,125.0142 88.6465,161.38194 100.0114,288.66919 43.1868,427.32119 -40.9138,97.7384 -50.0057,186.3848 -68.1896,690.9875 -11.3649,318.218 -15.9108,679.6226 -11.3649,800.0908 11.3649,206.8416 15.9108,222.7525 70.4626,259.1203 81.8274,54.5516 131.8331,113.6493 200.0227,245.4824 50.0056,93.1924 56.8246,136.379 50.0056,240.9363 -11.3649,154.5631 -72.7355,252.3015 -206.8417,325.0369 -95.4653,50.0057 -100.0113,50.0057 -1391.0668,54.5517 -711.4443,2.273 -1327.4233,-4.546 -1363.791,-13.6379 z m 2586.657,-343.2208 c 47.7327,0 9.0919,-115.9222 -59.0977,-175.0199 l -77.2815,-68.1895 -1118.3086,6.819 c -1220.593,6.8189 -1197.8632,4.5459 -1259.2337,138.652 -22.7299,47.7327 -18.1839,61.3707 18.1838,90.9195 38.6408,29.5487 204.5686,31.8217 1261.5068,20.4568 668.2576,-6.8189 1222.8659,-13.6379 1234.2309,-13.6379 z M 3932.467,2849.4305 c 65.9165,-15.9109 115.9222,-31.8218 109.1033,-40.9138 -6.8189,-6.8189 -88.6464,-13.6378 -184.1118,-13.6378 -220.4795,-4.546 -243.2094,-25.0029 -265.9393,-259.1203 -22.7298,-256.8474 -20.4568,-547.7894 6.8191,-663.7117 38.6407,-165.928 45.4596,-259.1203 22.7297,-293.2151 -11.3649,-18.1838 -79.5544,-34.0948 -181.8388,-43.1867 l -161.3819,-11.3649 v 670.5306 c 0,368.2236 6.819,677.3496 18.184,686.4415 22.7297,25.0028 488.6917,2.2729 636.4357,-31.8218 z M 5346.2637,1101.5049 c 0,-36.3677 -25.0028,-90.9193 -54.5516,-120.46816 l -52.2786,-59.09764 -975.1107,-9.09194 c -536.4244,-4.54591 -993.2945,0 -1013.7513,9.09194 -36.3678,18.18387 -143.1981,190.9308 -127.2871,204.5688 6.8189,4.5459 1195.5901,27.2758 1854.7557,34.0947 l 368.2236,2.273 z m -300.034,-661.43861 6.8189,-125.0142 -681.8955,6.81893 -679.6225,6.81903 -13.6379,-131.83312 c -6.819,-72.7356 -18.1839,-277.304215 -27.2758,-454.59701 -15.9109,-377.31561 -2.2731,-443.23217 138.6521,-609.16005 270.4852,-325.03687 313.6719,-429.59417 375.0425,-922.83197 45.4597,-372.7694 77.2815,-593.249 106.8303,-725.0821 6.819,-36.3679 43.1867,102.2843 100.0113,375.0424 122.7412,611.433 236.3905,891.0102 447.7781,1109.2168 95.4654,97.73827 140.9251,111.37621 77.2815,22.7298 -77.2815,-111.3762 -293.215,-559.1543 -329.5828,-688.7145 -20.4569,-68.1895 -50.0057,-206.8416 -70.4626,-306.8529 -18.1838,-102.2843 -59.0976,-295.4881 -88.6464,-431.8672 -31.8218,-138.6521 -63.6436,-325.0368 -72.7355,-413.6833 l -15.9109,-165.9279 h -86.3734 c -100.0114,0 -113.6493,27.2759 -113.6493,231.8445 0,361.4046 -195.4768,1172.8603 -356.8587,1477.4403 -47.7327,90.9194 -140.9251,225.0255 -209.1146,300.034 -68.1895,77.28147 -150.017,165.9279 -179.5659,200.02263 l -54.5516,59.09764 36.3678,204.56861 c 18.1838,113.64936 47.7327,406.86443 61.3706,650.07379 l 29.5488,443.23206 204.5687,6.81904 c 113.6492,4.54591 472.7808,6.81892 797.8177,6.81892 h 590.9762 z M 4393.883,-3312.632 c 34.0947,-54.5518 22.7298,-122.7412 -27.2758,-177.2929 -95.4654,-100.0113 -327.3099,-18.1839 -311.399,109.1033 4.546,34.0947 29.5488,70.4625 63.6436,88.6463 68.1896,36.3679 247.7554,22.7299 275.0312,-20.4567 z"
         id="path21"
         style="fill:#061e2f;fill-opacity:1;stroke:#ffffff;stroke-width:97.8723;stroke-dasharray:none;stroke-opacity:1" /><path
         d="m 9273.9819,3442.6796 c -31.8217,-27.2758 -70.4624,-77.2814 -81.8274,-113.6493 -20.4569,-56.8246 -15.9108,-79.5544 25.0028,-143.1981 29.5488,-40.9136 79.5545,-88.6463 113.6493,-109.1032 63.6436,-34.0947 65.9165,-31.8218 154.563,65.9166 104.5573,118.1952 109.1032,161.3819 27.2758,250.0284 -86.3734,93.1923 -163.655,109.1032 -238.6635,50.0056 z"
         id="path22"
         style="fill:#061e2f;fill-opacity:1;stroke:#ffffff;stroke-width:97.8723;stroke-dasharray:none;stroke-opacity:1" /><path
         d="m -1095.376,3385.8549 c -102.2843,-95.4653 -104.5573,-165.9278 -11.3649,-275.0312 109.10328,-125.014 243.2094,-106.8302 336.40179,43.1868 68.18955,109.1032 61.37059,179.5658 -22.72985,250.0283 -100.01135,84.1006 -200.0227,79.5545 -302.30704,-18.1839 z"
         id="path23"
         style="fill:#061e2f;fill-opacity:1;stroke:#ffffff;stroke-width:97.8723;stroke-dasharray:none;stroke-opacity:1" /><path
         d="m 6594.1326,3160.8294 c -43.1868,-27.2758 -79.5545,-75.0085 -84.1005,-104.5573 -18.1838,-118.1951 104.5574,-275.0312 213.6606,-275.0312 63.6435,0 179.5658,95.4654 227.2985,186.3848 31.8218,61.3706 31.8218,72.7356 -2.273,125.0142 -38.6408,59.0976 -159.1089,120.4683 -234.1174,120.4683 -25.0028,0 -77.2816,-22.7299 -120.4682,-52.2788 z"
         id="path24"
         style="fill:#061e2f;fill-opacity:1;stroke:#ffffff;stroke-width:97.8723;stroke-dasharray:none;stroke-opacity:1" /><path
         d="m 1625.3872,3142.6456 c -56.8246,-36.3678 -75.0085,-63.6436 -75.0085,-111.3763 0,-88.6464 131.8331,-227.2985 213.6605,-227.2985 120.4682,0 263.6663,113.6493 263.6663,206.8416 0,22.7299 -31.8217,70.4625 -70.4625,109.1033 -86.3734,86.3734 -218.2066,95.4654 -331.8558,22.7299 z"
         id="path25"
         style="fill:#061e2f;fill-opacity:1;stroke:#ffffff;stroke-width:97.8723;stroke-dasharray:none;stroke-opacity:1" /><path
         d="m 259.32316,2888.0713 c -34.09484,-34.0949 -52.27871,-93.1924 -63.64366,-186.3848 -20.45677,-202.2957 -47.73269,-272.7583 -143.197955,-359.1317 -63.643659,-56.8246 -120.468286,-84.1005 -225.025605,-104.5573 -218.20655,-43.1867 -300.034,-190.9307 -172.74685,-309.126 63.64362,-59.0976 84.1005,-68.1895 218.20653,-88.6464 61.370652,-11.3649 109.103342,-43.1867 184.111835,-127.2871 97.738395,-109.1034 129.560115,-186.3849 129.560115,-318.218 0,-36.3677 27.2758,-95.4654 59.09763,-134.1061 79.55453,-95.4653 165.92797,-95.4653 245.4824,0 31.82183,38.6407 59.09764,77.2815 59.09764,84.1005 0,9.092 9.09194,77.2814 22.7299,150.017 29.54882,186.3848 136.37903,297.761 315.94485,331.8558 70.46254,13.6379 150.01711,29.5489 179.56581,36.3678 50.0057,9.0919 140.9251,129.5601 140.9251,184.1118 0,15.9109 -27.2759,59.0975 -61.3706,97.7383 -52.2786,56.8246 -88.6465,72.7356 -220.47957,88.6465 -129.5601,18.1838 -170.47387,34.0947 -231.8444,95.4653 -84.10044,81.8275 -134.10614,200.0227 -156.83604,370.4966 -11.36494,79.5544 -34.09473,129.5601 -79.5544,177.2928 -77.28154,77.2815 -134.10616,81.8274 -200.02273,11.365 z m 234.11746,-727.3552 c 127.28721,-113.6493 122.74118,-140.9252 -34.09473,-265.9393 -104.55734,-81.8275 -109.10337,-79.5545 -229.57154,72.7355 l -70.46259,86.3734 84.10043,102.2843 c 45.45979,56.8247 95.46538,102.2843 113.64925,102.2843 15.91098,0 77.28154,-43.1866 136.37918,-97.7382 z"
         id="path26"
         style="fill:#061e2f;fill-opacity:1;stroke:#ffffff;stroke-width:97.8723;stroke-dasharray:none;stroke-opacity:1" /><path
         d="m 8155.6733,2867.6144 c -47.7327,-43.1867 -63.6436,-84.1005 -81.8274,-218.2066 -27.2758,-200.0227 -38.6408,-222.7525 -156.8361,-329.5828 -63.6435,-59.0976 -120.4681,-86.3734 -197.7496,-97.7384 -129.5602,-18.1839 -213.6606,-90.9194 -213.6606,-186.3847 0,-88.6465 79.5544,-156.8361 222.7525,-188.6578 209.1146,-43.1868 304.58,-156.836 343.2208,-409.1373 18.1838,-111.3763 38.6407,-156.836 81.8274,-195.4768 79.5545,-68.1895 127.2872,-65.9166 202.2957,13.638 50.0057,52.2786 65.9166,93.1923 75.0085,209.1146 20.4569,234.1174 129.5602,343.2208 372.7696,375.0425 136.379,15.911 184.1117,47.7327 227.2985,147.7441 54.5516,131.8331 -31.8219,206.8416 -268.2123,236.3904 -211.3876,27.2758 -318.2179,161.382 -340.9477,420.5023 -15.9109,177.2928 -50.0058,238.6633 -145.4711,261.3932 -43.1867,11.365 -75.0085,0 -120.4682,-38.6407 z m 243.2095,-902.3751 c -34.0949,-45.4597 -84.1006,-100.0113 -109.1034,-120.4682 -43.1866,-38.6407 -47.7327,-36.3677 -152.29,79.5544 l -106.8303,118.1953 106.8303,109.1033 104.5573,106.8302 109.1034,-106.8302 109.1032,-106.8303 z"
         id="path27"
         style="fill:#061e2f;fill-opacity:1;stroke:#ffffff;stroke-width:97.8723;stroke-dasharray:none;stroke-opacity:1" /><path
         d="M 920.76182,1212.8812 C 770.74482,1121.9618 761.65289,1008.3125 893.48601,874.20641 1000.3163,769.64909 1032.138,762.83017 1134.4223,826.47372 c 90.9195,54.55161 150.0171,143.19807 134.1062,200.02268 -18.1839,54.5517 -170.4739,200.0227 -229.5714,218.2066 -27.276,6.8189 -75.00857,-4.5459 -118.19528,-31.8218 z"
         id="path28"
         style="fill:#061e2f;fill-opacity:1;stroke:#ffffff;stroke-width:97.8723;stroke-dasharray:none;stroke-opacity:1" /><path
         d="m 7387.4043,1221.9732 c -79.5544,-40.9137 -159.1089,-175.0199 -150.017,-250.0284 4.5461,-38.64075 38.6408,-88.64646 90.9194,-127.28721 100.0114,-81.82742 184.1118,-72.73549 304.58,31.82183 97.7384,86.37345 102.2844,170.47388 15.911,268.21228 -81.8276,88.6464 -181.8388,118.1952 -261.3934,77.2815 z"
         id="path29"
         style="fill:#061e2f;fill-opacity:1;stroke:#ffffff;stroke-width:97.8723;stroke-dasharray:none;stroke-opacity:1" /><path
         d="M 1645.8441,837.83866 C 1620.8412,806.01683 1593.5654,724.18941 1584.4734,651.45393 1554.9246,419.60941 1470.8242,324.14403 1252.6176,280.95736 1184.428,267.3194 1100.3276,244.58962 1066.2329,230.95166 984.40533,199.12983 925.30773,92.299608 959.40253,33.20197 c 27.2758,-52.278715 197.74967,-138.65216 270.48517,-138.65216 125.0142,0 279.5772,-143.19795 320.491,-295.48796 11.3648,-50.0057 34.0947,-131.83312 45.4597,-181.83882 15.9108,-54.55162 47.7327,-106.83034 81.8274,-129.56023 52.2787,-34.09473 63.6435,-34.09473 136.3791,0 86.3735,43.18678 122.7412,111.37636 122.7412,240.93647 0,143.19806 154.5631,322.76388 304.58,354.58571 31.8218,6.81892 84.1005,15.91086 115.9223,22.729775 77.2814,15.91097 215.9336,143.198074 215.9336,195.476785 0,72.73549 -102.2843,156.83593 -186.3849,156.83593 -261.3932,0 -422.7752,147.74409 -461.4159,420.50226 -22.7299,161.38195 -63.6436,215.93356 -159.1089,215.93356 -54.5517,0 -88.6465,-15.91086 -120.4682,-56.82463 z M 1852.6857,178.67306 1964.0619,76.388636 1864.0506,-34.987605 1766.3123,-146.36384 1652.663,-34.987605 1541.2868,76.388636 l 84.1004,77.281514 c 45.4597,40.91377 84.1004,88.64646 84.1004,102.2843 0,43.18678 29.5488,27.27593 143.1981,-77.28139 z"
         id="path30"
         style="fill:#061e2f;fill-opacity:1;stroke:#ffffff;stroke-width:97.8723;stroke-dasharray:none;stroke-opacity:1" /><path
         d="m 6773.6984,853.74952 c -59.0976,-11.36483 -102.2843,-95.46538 -120.4682,-243.20936 -29.5488,-247.75538 -100.0114,-313.67194 -356.8587,-340.94774 -150.017,-15.91086 -245.4824,-79.55453 -245.4824,-161.38195 0,-68.189577 152.29,-184.111845 270.4853,-204.568615 195.4767,-36.367845 290.9421,-138.652155 320.4909,-352.312695 34.0947,-245.48238 136.379,-327.30991 256.8473,-206.84173 52.2786,52.27871 72.7355,97.73839 86.3734,195.47679 27.2758,197.74968 145.471,320.49086 343.2207,345.49366 68.1896,9.09193 131.8332,36.367845 175.0199,75.008605 95.4654,84.100433 106.8303,143.197955 40.9138,218.206575 -45.4598,54.55161 -75.0085,63.64355 -227.2985,79.55441 -250.0284,25.00291 -334.1289,113.64925 -334.1289,347.76667 0,172.74689 -86.3734,275.03119 -209.1146,247.75538 z m 95.4654,-670.53055 c 18.1838,-15.91086 52.2786,-50.00571 77.2815,-77.28151 40.9136,-50.005708 40.9136,-52.278607 -31.8218,-143.198075 l -75.0085,-93.192365 -77.2816,75.008495 c -125.0142,118.195274 -131.8331,145.471081 -59.0976,211.387645 70.4626,61.37054 115.9223,68.18958 165.928,27.27581 z"
         id="path31"
         style="fill:#061e2f;fill-opacity:1;stroke:#ffffff;stroke-width:97.8723;stroke-dasharray:none;stroke-opacity:1" /></g></g></svg>
